<?xml version="1.0" standalone="no"?>
<!DOCTYPE svg PUBLIC "-//W3C//DTD SVG 20010904//EN"
 "http://www.w3.org/TR/2001/REC-SVG-20010904/DTD/svg10.dtd">
<svg version="1.0" xmlns="http://www.w3.org/2000/svg"
 width="128.000000pt" height="128.000000pt" viewBox="0 0 128.000000 128.000000"
 preserveAspectRatio="xMidYMid meet">

<g transform="translate(0.000000,128.000000) scale(0.100000,-0.100000)"
fill="#000000" stroke="none">
<path d="M244 1086 c-15 -41 -34 -99 -34 -102 0 -2 16 -6 34 -10 l35 -6 7 -69
7 -69 33 0 34 0 0 -70 0 -70 -35 0 -35 0 0 -55 0 -55 35 0 35 0 0 -174 c0
-163 -1 -174 -19 -179 -21 -5 -39 -66 -26 -86 4 -7 46 -11 106 -11 l99 0 0 31
c0 38 -16 69 -35 69 -13 0 -15 28 -15 175 l0 175 170 0 170 0 0 -166 c0 -165
0 -167 -25 -190 -18 -16 -25 -34 -25 -59 l0 -35 105 0 105 0 0 40 c0 31 -5 43
-25 56 l-25 16 0 169 0 169 40 0 40 0 0 60 0 60 -40 0 -40 0 0 65 0 65 40 0
39 0 3 67 c3 66 3 67 36 75 17 5 32 11 32 15 0 3 -8 31 -17 60 -16 50 -19 54
-43 48 -229 -59 -479 -65 -684 -16 -55 13 -79 15 -82 7z m566 -321 l0 -65 -42
0 c-24 0 -100 -3 -170 -7 l-128 -6 0 71 0 72 170 0 170 0 0 -65z"/>
</g>
</svg>
